[2026-03-04T05:15:15.601Z] Pipeline started.
[2026-03-04T05:15:16.336Z] Downloading YouTube: https://youtube.com/shorts/sbqu-Bw61Rs?si=Nn4xez_KJv-rjCSm
[2026-03-04T05:15:35.588Z] ElevenLabs TTS seg 0 [2EiwWnXFnvU5JabPnv8n]: "Yaşam tarzını değiştir mi?"
[2026-03-04T05:15:36.411Z] Seg 0 done (32226 bytes) ✅
[2026-03-04T05:15:36.527Z] Stretching seg 0: 1.99s→1.20s (rate=1.40)
[2026-03-04T05:15:37.107Z] ElevenLabs TTS seg 1 [2EiwWnXFnvU5JabPnv8n]: "Gerçekten pahalı giysiler alıyormuş gibi görünmüyo"
[2026-03-04T05:15:37.662Z] Seg 1 done (52288 bytes) ✅
[2026-03-04T05:15:37.770Z] Stretching seg 1: 3.24s→2.80s (rate=1.16)
[2026-03-04T05:15:38.137Z] ElevenLabs TTS seg 2 [2EiwWnXFnvU5JabPnv8n]: "Hayır, gerçekten pahalı giysiler almıyorum."
[2026-03-04T05:15:38.629Z] Seg 2 done (51035 bytes) ✅
[2026-03-04T05:15:38.751Z] Stretching seg 2: 3.16s→2.20s (rate=1.40)
[2026-03-04T05:15:39.139Z] ElevenLabs TTS seg 3 [2EiwWnXFnvU5JabPnv8n]: "Şeyler alıyor musun? Alabileceğin..."
[2026-03-04T05:15:39.600Z] Seg 3 done (37660 bytes) ✅
[2026-03-04T05:15:39.726Z] Stretching seg 3: 2.32s→2.80s (rate=0.83)
[2026-03-04T05:15:40.233Z] ElevenLabs TTS seg 4 [2EiwWnXFnvU5JabPnv8n]: "Hayır, zemininde bir yatak olan küçük bir dairem v"
[2026-03-04T05:15:40.741Z] Seg 4 done (55214 bytes) ✅
[2026-03-04T05:15:40.864Z] Stretching seg 4: 3.42s→4.70s (rate=0.80)
[2026-03-04T05:15:41.324Z] ElevenLabs TTS seg 5 [2EiwWnXFnvU5JabPnv8n]: "Orada yaşıyorum."
[2026-03-04T05:15:43.113Z] Seg 5 done (21777 bytes) ✅
[2026-03-04T05:15:43.242Z] Stretching seg 5: 1.33s→1.60s (rate=0.83)
[2026-03-04T05:15:43.636Z] Running FFmpeg: C:\Users\fullm\Downloads\dubverse-saas\backend\node_modules\ffmpeg-static\ffmpeg.exe -i C:\Users\fullm\Downloads\dubverse-saas\tmp\uploads\1d40e5fb-dff2-4a96-bf24-6e55ff37cc77\audio.mp3 -i C:\Users\fullm\Downloads\dubverse-saas\tmp\uploads\1d40e5fb-dff2-4a96-bf24-6e55ff37cc77\segments\seg_0.mp3 -i C:\Users\fullm\Downloads\dubverse-saas\tmp\uploads\1d40e5fb-dff2-4a96-bf24-6e55ff37cc77\segments\seg_1.mp3 -i C:\Users\fullm\Downloads\dubverse-saas\tmp\uploads\1d40e5fb-dff2-4a96-bf24-6e55ff37cc77\segments\seg_2.mp3 -i C:\Users\fullm\Downloads\dubverse-saas\tmp\uploads\1d40e5fb-dff2-4a96-bf24-6e55ff37cc77\segments\seg_3.mp3 -i C:\Users\fullm\Downloads\dubverse-saas\tmp\uploads\1d40e5fb-dff2-4a96-bf24-6e55ff37cc77\segments\seg_4.mp3 -i C:\Users\fullm\Downloads\dubverse-saas\tmp\uploads\1d40e5fb-dff2-4a96-bf24-6e55ff37cc77\segments\seg_5.mp3 -filter_complex [1:a]aformat=sample_rates=44100:channel_layouts=stereo,adelay=0|0[s0];[2:a]aformat=sample_rates=44100:channel_layouts=stereo,adelay=1200|1200[s1];[3:a]aformat=sample_rates=44100:channel_layouts=stereo,adelay=4000|4000[s2];[4:a]aformat=sample_rates=44100:channel_layouts=stereo,adelay=6200|6200[s3];[5:a]aformat=sample_rates=44100:channel_layouts=stereo,adelay=9000|9000[s4];[6:a]aformat=sample_rates=44100:channel_layouts=stereo,adelay=13700|13700[s5];[0:a]aformat=sample_rates=44100:channel_layouts=stereo,volume=0[bg];[bg][s0][s1][s2][s3][s4][s5]amix=inputs=7:duration=first:dropout_transition=2,volume=7[mixed];[mixed]loudnorm=I=-23:TP=-1.5:LRA=11[out] -map [out] -acodec libmp3lame -ar 44100 -b:a 192k -y C:\Users\fullm\Downloads\dubverse-saas\tmp\uploads\1d40e5fb-dff2-4a96-bf24-6e55ff37cc77\dubbed_audio.mp3
[2026-03-04T05:15:43.868Z] FFmpeg Err: Input #0, mp3, from 'C:\Users\fullm\Downloads\dubverse-saas\tmp\uploads\1d40e5fb-dff2-4a96-bf24-6e55ff37cc77\audio.mp3':
  Metadata:
    major_brand     : mp42
    minor_version   : 0
    compatible_brands: isommp42
    encoder         : Lavf60.16.100
  Duration: 00:00:15.33, start: 0.025057, bitrate: 128 kb/s
  Stream #0:0: Audio: mp3, 44100 Hz, stereo, fltp, 128 kb/s
    Metadata:
      encoder         : Lavc60.31

[2026-03-04T05:15:43.871Z] FFmpeg Err: Input #1, mp3, from 'C:\Users\fullm\Downloads\dubverse-saas\tmp\uploads\1d40e5fb-dff2-4a96-bf24-6e55ff37cc77\segments\seg_0.mp3':
  Metadata:
    encoder         : Lavf60.16.100
  Duration: 00:00:01.44, start: 0.025057, bitrate: 65 kb/s
  Stream #1:0: Audio: mp3, 44100 Hz, mono, fltp, 64 kb/s
Input #2, mp3, from 'C:\Users\fullm\Downloads\dubverse-saas\tmp\uploads\1d40e5fb-dff2-4a96-bf24-6e55ff37cc77\segments\seg_1.mp3':
  Metadata:
    encoder         : Lavf60.16.100
  Duration: 00:00:02.82, start: 0.025057, bitrate: 64 kb/s
  Stream #2:0: Audio: mp3, 44100 Hz, mono, fltp, 64 kb/s
Input #3, mp3, from 'C:\Users\fullm\Downloads\dubverse-saas\tmp\uploads\1d40e5fb-dff2-4a96-bf24-6e55ff37cc77\segments\seg_2.mp3':
  Metadata:
    encoder         : Lavf60.16.100
  Duration: 00:00:02.27, start: 0.025057, bitrate: 64 kb/s
  Stream #3:0: Audio: mp3, 44100 Hz, mono, fltp, 64 kb/s

[2026-03-04T05:15:43.876Z] FFmpeg Err: Input #4, mp3, from 'C:\Users\fullm\Downloads\dubverse-saas\tmp\uploads\1d40e5fb-dff2-4a96-bf24-6e55ff37cc77\segments\seg_3.mp3':
  Metadata:
    encoder         : Lavf60.16.100
  Duration: 00:00:02.77, start: 0.025057, bitrate: 64 kb/s
  Stream #4:0: Audio: mp3, 44100 Hz, mono, fltp, 64 kb/s
Input #5, mp3, from 'C:\Users\fullm\Downloads\dubverse-saas\tmp\uploads\1d40e5fb-dff2-4a96-bf24-6e55ff37cc77\segments\seg_4.mp3':
  Metadata:
    encoder         : Lavf60.16.100
  Duration: 00:00:04.26, start: 0.025057, bitrate: 64 kb/s
  Stream #5:0: Audio: mp3, 44100 Hz, mono, fltp, 64 kb/s
Input #6, mp3, from 'C:\Users\fullm\Downloads\dubverse-saas\tmp\uploads\1d40e5fb-dff2-4a96-bf24-6e55ff37cc77\segments\seg_5.mp3':
  Metadata:
    encoder         : Lavf60.16.100
  Duration: 00:00:01.59, start: 0.025057, bitrate: 65 kb/s
  Stream #6:0: Audio: mp3, 44100 Hz, mono, fltp, 64 kb/s

[2026-03-04T05:15:43.880Z] FFmpeg Err: Stream mapping:
  Stream #0:0 (mp3float) -> aformat:default
  Stream #1:0 (mp3float) -> aformat:default
  Stream #2:0 (mp3float) -> aformat:default
  Stream #3:0 (mp3float) -> aformat:default
  Stream #4:0 (mp3float) -> aformat:default
  Stream #5:0 (mp3float) -> aformat:default
  Stream #6:0 (mp3float) -> aformat:default
  loudnorm:default -> Stream #0:0 (libmp3lame)

[2026-03-04T05:15:43.981Z] FFmpeg Err: Output #0, mp3, to 'C:\Users\fullm\Downloads\dubverse-saas\tmp\uploads\1d40e5fb-dff2-4a96-bf24-6e55ff37cc77\dubbed_audio.mp3':
  Metadata:
    major_brand     : mp42
    minor_version   : 0
    compatible_brands: isommp42
    TSSE            : Lavf60.16.100
  Stream #0:0: Audio: mp3, 44100 Hz, stereo, fltp, 192 kb/s
    Metadata:
      encoder         : Lavc60.31.102 libmp3lame

[2026-03-04T05:15:43.984Z] FFmpeg Err: size=       0kB time=-00:00:00.02 bitrate=  -0.0kbits/s speed=N/A    
[2026-03-04T05:15:44.452Z] FFmpeg Err: size=     156kB time=00:00:06.58 bitrate= 193.7kbits/s speed=11.5x    
[2026-03-04T05:15:44.955Z] FFmpeg Err: size=     256kB time=00:00:11.88 bitrate= 176.4kbits/s speed=  11x    
[2026-03-04T05:15:45.132Z] FFmpeg Err: [out#0/mp3 @ 0000018919aef440] video:0kB audio:359kB subtitle:0kB other streams:0kB global headers:0kB muxing overhead: 0.207601%
size=     360kB time=00:00:15.38 bitrate= 191.8kbits/s speed=12.3x    

[2026-03-04T05:15:48.266Z] Running FFmpeg: C:\Users\fullm\Downloads\dubverse-saas\backend\node_modules\ffmpeg-static\ffmpeg.exe -i C:\Users\fullm\Downloads\dubverse-saas\tmp\uploads\1d40e5fb-dff2-4a96-bf24-6e55ff37cc77\video.mp4 -i C:\Users\fullm\Downloads\dubverse-saas\tmp\uploads\1d40e5fb-dff2-4a96-bf24-6e55ff37cc77\dubbed_audio.mp3 -map 0:v:0 -map 1:a:0 -c:v copy -c:a aac -b:a 192k -shortest -y C:\Users\fullm\Downloads\dubverse-saas\tmp\uploads\1d40e5fb-dff2-4a96-bf24-6e55ff37cc77\final_dubbed.mp4
[2026-03-04T05:15:48.372Z] FFmpeg Err: Input #0, mov,mp4,m4a,3gp,3g2,mj2, from 'C:\Users\fullm\Downloads\dubverse-saas\tmp\uploads\1d40e5fb-dff2-4a96-bf24-6e55ff37cc77\video.mp4':
  Metadata:
    major_brand     : mp42
    minor_version   : 0
    compatible_brands: isommp42
    creation_time   : 2022-10-02T15:04:51.000000Z
  Duration: 00:00:15.30, start: 0.000000, bitrate: 410 kb/s
  Stream #0:0[0x1](und): Video: h264 (Main) (avc1 / 0x31637661), yuv420p(tv, bt709, progressive), 360x640 [SAR 1:1 DAR 9:16], 278 kb/s, 30 fps, 30 tbr, 15360 tbn (default)
    Metadata:
      creation_time   : 2022-10-02T15:04:51.000000Z
      handler_name    : ISO Media file produced by Google Inc. Created on: 10/02/2022.
      vendor_id       : [0][0][0][0]
  Stream #0:1[0x2](eng): Audio: aac (LC) (mp4a / 0x6134706D), 44100 Hz, stereo, fltp, 127 kb/s (default)
    Metadata:
      creation_time   : 2022-10-02T15:04:51.000000Z
      handler_name    : ISO Media file produced by Google Inc. Created on: 10/02/2022.
      vendor_id       : [0][0][0][0]

[2026-03-04T05:15:48.376Z] FFmpeg Err: Input #1, mp3, from 'C:\Users\fullm\Downloads\dubverse-saas\tmp\uploads\1d40e5fb-dff2-4a96-bf24-6e55ff37cc77\dubbed_audio.mp3':
  Metadata:
    major_brand     : mp42
    minor_version   : 0
    compatible_brands: isommp42
    encoder         : Lavf60.16.100
  Duration: 00:00:15.33, start: 0.025057, bitrate: 192 kb/s
  Stream #1:0: Audio: mp3, 44100 Hz, stereo, fltp, 192 kb/s
    Metadata:
      encoder         : Lavc60.31

[2026-03-04T05:15:48.380Z] FFmpeg Err: Stream mapping:
  Stream #0:0 -> #0:0 (copy)
  Stream #1:0 -> #0:1 (mp3 (mp3float) -> aac (native))

[2026-03-04T05:15:48.386Z] FFmpeg Err: Output #0, mp4, to 'C:\Users\fullm\Downloads\dubverse-saas\tmp\uploads\1d40e5fb-dff2-4a96-bf24-6e55ff37cc77\final_dubbed.mp4':
  Metadata:
    major_brand     : mp42
    minor_version   : 0
    compatible_brands: isommp42
    encoder         : Lavf60.16.100

[2026-03-04T05:15:48.390Z] FFmpeg Err:   Stream #0:0(und): Video: h264 (Main) (avc1 / 0x31637661), yuv420p(tv, bt709, progressive), 360x640 [SAR 1:1 DAR 9:16], q=2-31, 278 kb/s, 30 fps, 30 tbr, 15360 tbn (default)
    Metadata:
      creation_time   : 2022-10-02T15:04:51.000000Z
      handler_name    : ISO Media file produced by Google Inc. Created on: 10/02/2022.
      vendor_id       : [0][0][0][0]
  Stream #0:1: Audio: aac (LC) (mp4a / 0x6134706D), 44100 Hz, stereo, fltp, 192 kb/s
    Metadata:
      encoder         : Lavc60.31.102 aac
size=       0kB time=N/A bitrate=N/A speed=N/A    
[2026-03-04T05:15:48.877Z] FFmpeg Err: size=     512kB time=00:00:10.76 bitrate= 389.6kbits/s speed=21.5x    
[2026-03-04T05:15:49.081Z] FFmpeg Err: [out#0/mp4 @ 0000025c13ddbe00] video:520kB audio:351kB subtitle:0kB other streams:0kB global headers:0kB muxing overhead: 1.787218%
size=     887kB time=00:00:15.27 bitrate= 475.4kbits/s speed=21.7x    

[2026-03-04T05:15:49.084Z] FFmpeg Err: [aac @ 0000025c1263e940] Qavg: 13894.602

[2026-03-04T05:15:50.968Z] ✅ Pipeline finished successfully!
